<svg id="wp-script-logo" data-name="WP-Script" xmlns="http://www.w3.org/2000/svg" viewBox="0 0 388.98 112.67"><defs><style>.wps-logo{fill:#3f1d78;}</style></defs><title>logo WP-Script SVG violet sans zone</title><path class="wps-logo" d="M110.12,46.88c-4.86-5.27-10.64-8-17.46-8-6.1,0-11,1.76-14.52,5.36a.5.5,0,0,1-.71,0,.48.48,0,0,1-.15-.38v-3a.51.51,0,0,0-.51-.51H62.18a.53.53,0,0,0-.5.38L54.82,66.34a.51.51,0,0,1-.6.4.49.49,0,0,1-.4-.4L46.4,40.74a.54.54,0,0,0-.49-.37H32.26a.5.5,0,0,0-.49.37l-7.51,25.6a.51.51,0,0,1-.6.4.49.49,0,0,1-.4-.4L16.44,40.75a.53.53,0,0,0-.49-.38H.52a.51.51,0,0,0-.52.51A.41.41,0,0,0,0,41L16.26,91.66a.48.48,0,0,0,.48.35H30.42a.5.5,0,0,0,.49-.36l7.66-25.58a.51.51,0,0,1,1,0l7.69,25.58a.47.47,0,0,0,.48.36H61.26a.51.51,0,0,1,.51.51v19.64a.5.5,0,0,0,.51.51H76.76a.51.51,0,0,0,.51-.51V88.46a.5.5,0,0,1,.48-.51.54.54,0,0,1,.38.15c3.56,3.6,8.42,5.36,14.52,5.36a22.82,22.82,0,0,0,17.46-7.85c4.85-5.27,7.23-11.77,7.23-19.42A27.39,27.39,0,0,0,110.12,46.88ZM98.35,75.39a11.84,11.84,0,0,1-8.78,3.4,12.19,12.19,0,0,1-8.89-3.4,12.47,12.47,0,0,1-3.4-9.2A12.49,12.49,0,0,1,80.68,57a12.31,12.31,0,0,1,8.89-3.41A11.88,11.88,0,0,1,98.35,57c2.37,2.27,3.51,5.37,3.51,9.19S100.72,73.11,98.35,75.39Z"/><path class="wps-logo" d="M162.47,60c7.13,1.55,16.53,5.26,16.42,16.52q0,8.37-6.19,12.71c-4.13,2.78-9.19,4.23-15.29,4.23-10.65,0-18-4-22-11.85a.52.52,0,0,1,.21-.68l12.48-7.11a.52.52,0,0,1,.7.22l0,0c1.43,3.66,4.34,5.53,8.57,5.53,3.72,0,5.58-1,5.58-3.2s-4-3.31-9-4.55c-7.12-2-16.42-5.47-16.42-16a15.07,15.07,0,0,1,5.79-12.5c3.79-3,8.77-4.44,14.46-4.44,8.38,0,15.57,3.75,19.85,10.58a.52.52,0,0,1-.18.72h0l-12.3,6.63a.5.5,0,0,1-.68-.19c-1.63-2.72-3.83-4.12-6.67-4.12s-4.34.93-4.34,2.89S157.52,58.65,162.47,60Z"/><path class="wps-logo" d="M187.67,85.61a26.51,26.51,0,0,1-7.74-19.42,26.51,26.51,0,0,1,7.74-19.41c5.27-5.27,11.78-7.85,19.63-7.85A26.94,26.94,0,0,1,230.38,51.7a.54.54,0,0,1-.19.71l-12.62,7.32a.51.51,0,0,1-.69-.18v0c-1.9-3.51-5.13-5.31-9.78-5.31-6.71,0-11.67,5-11.67,12s5,12,11.67,12c4.65,0,8-1.79,9.78-5.29a.51.51,0,0,1,.68-.23h0l12.61,7.22a.53.53,0,0,1,.2.7h0a27.72,27.72,0,0,1-42.71,5Z"/><path class="wps-logo" d="M250.19,47.2c2.58-5,8.07-7.7,14-7.85a.52.52,0,0,1,.52.5h0V56.34a.49.49,0,0,1-.49.5h-.08a15.32,15.32,0,0,0-10.06,2c-3.2,1.86-4.86,5.16-4.86,9.81V91.47a.51.51,0,0,1-.51.51H234.26a.5.5,0,0,1-.51-.51h0V40.88a.49.49,0,0,1,.47-.53h14.51a.51.51,0,0,1,.51.51h0v6.07a.51.51,0,0,0,.48.54A.52.52,0,0,0,250.19,47.2Z"/><rect class="wps-logo" x="271.96" y="40.37" width="15.49" height="51.64" rx="0.51"/><path class="wps-logo" d="M343.73,46.88c4.86,5.27,7.23,11.67,7.23,19.31s-2.37,14.15-7.23,19.42a22.77,22.77,0,0,1-17.47,7.85c-6.1,0-11-1.76-14.52-5.36a.53.53,0,0,0-.73,0,.5.5,0,0,0-.14.35v23.7a.51.51,0,0,1-.51.51H295.91a.5.5,0,0,1-.51-.51h0V40.88a.51.51,0,0,1,.51-.51h14.47a.51.51,0,0,1,.51.51h0v3a.51.51,0,0,0,.87.36c3.55-3.6,8.42-5.36,14.52-5.36A23.11,23.11,0,0,1,343.73,46.88ZM323.18,78.79a11.75,11.75,0,0,0,8.78-3.4c2.38-2.28,3.51-5.38,3.51-9.2S334.34,59.27,332,57a11.88,11.88,0,0,0-8.78-3.41A12.29,12.29,0,0,0,314.26,57a12.43,12.43,0,0,0-3.41,9.19,12.44,12.44,0,0,0,3.41,9.2A12.22,12.22,0,0,0,323.18,78.79Z"/><path class="wps-logo" d="M362.85,92.81v-37a.51.51,0,0,0-.51-.51h-9.66a.5.5,0,0,1-.51-.51h0V40.88a.51.51,0,0,1,.51-.51h9.66a.51.51,0,0,0,.51-.51h0V26.42a.51.51,0,0,1,.51-.51h14.47a.51.51,0,0,1,.51.51h0V39.86a.5.5,0,0,0,.51.51h9.62a.51.51,0,0,1,.51.51h0V54.74a.51.51,0,0,1-.51.51h-9.62a.51.51,0,0,0-.51.51h0V92.81"/><path class="wps-logo" d="M289.4,8.76a36,36,0,0,1,4.91,3.69,43,43,0,0,1,4.73,5c.33.41.65.84,1,1.27a1.34,1.34,0,0,0,1.78.38A10.28,10.28,0,1,0,288.49,3.84,10.5,10.5,0,0,0,287.12,6a1.32,1.32,0,0,0,.58,1.72C288.26,8.07,288.83,8.4,289.4,8.76Z"/><path class="wps-logo" d="M257.65,19.08a1.35,1.35,0,0,0,1.77-.38c.32-.44.64-.86,1-1.27a43,43,0,0,1,4.73-5,36.76,36.76,0,0,1,4.91-3.68c.58-.36,1.15-.69,1.71-1A1.33,1.33,0,0,0,272.35,6a10.35,10.35,0,0,0-2.28-3.24,10.42,10.42,0,0,0-14.66.44,10.3,10.3,0,0,0,.26,14.29A9.89,9.89,0,0,0,257.65,19.08Z"/><path class="wps-logo" d="M283.08,21.34A4.28,4.28,0,0,0,279.7,23a4.25,4.25,0,0,0-7.63,2.59c0,5.27,7.63,8.44,7.63,8.44s7.64-3.13,7.64-8.44a4.26,4.26,0,0,0-4.26-4.26Z"/></svg>